<?xml version="1.0" encoding="UTF-8"?>
<svg width="264px" height="179px" viewBox="0 0 264 179" version="1.1" xmlns="http://www.w3.org/2000/svg" xmlns:xlink="http://www.w3.org/1999/xlink">
    <!-- Generator: Sketch 57.1 (83088) - https://sketch.com -->
    <title>distiller_pro_crown</title>
    <desc>Created with Sketch.</desc>
    <g id="Page-1" stroke="none" stroke-width="1" fill="none" fill-rule="evenodd">
        <g id="distiller_pro_crown" fill="#FFFFFF" fill-rule="nonzero">
            <path d="M25.24,53.7 C26.31,52.74 26.78,52.38 27.17,51.96 C33.37,45.33 32.58,34.76 25.48,29.11 C18.42,23.49 8.07,25.1 3.02,32.6 C-2.05,40.12 0.31,50.56 8.32,54.82 C10.36,55.91 11.13,57.13 11.65,59.29 C16.74,80.27 21.98,101.21 27.19,122.15 C28.66,128.05 30.72,129.62 36.87,129.610047 C75.14,129.56 113.41,129.55 151.69,129.45 C177.38,129.38 203.06,129.21 228.75,129.07 C233.46,129.04 235.83,127.14 236.98,122.53 C239.65,111.84 242.33,101.15 244.99,90.46 C247.65,79.77 250.34,69.08 252.89,58.36 C253.27,56.76 253.78,55.77 255.33,54.96 C262.56,51.2 265.49,42.49 262.22,35.05 C258.96,27.64 250.68,23.98 243.06,26.58 C235.38,29.19 231.05,37.23 233.02,45.16 C233.84,48.46 235.67,51.12 238.22,53.43 C237.65,54.05 237.18,54.57 236.69,55.06 C230.68,61.1 224.68,67.15 218.66,73.17 C205.6,86.23 186.69,84.85 175.66,70.04 C169.69,62.02 163.72,53.99 157.76,45.97 C152.92,39.46 148.08,32.94 143.21,26.39 C145.72,23.5 147.26,20.28 147.43,16.53 C147.76,9.37 143.5,3.05 136.9,0.83 C130.46,-1.34 123.38,0.95 119.37,6.52 C115.28,12.2 115.46,19.76 119.94,25.39 C120.73,26.39 120.75,26.99 119.98,28 C115.4,34 110.89,40.06 106.36,46.09 C100.12,54.4 93.94,62.74 87.63,71 C77.28,84.54 58.27,85.88 46.14,73.98 C44.57,72.44 43.08,70.83 41.5,69.31 C36.17,64.17 30.81,59.04 25.24,53.7 Z M132.37,178.05 C163.6,178.05 194.83,178.05 226.07,178.05 C226.78,178.05 227.49,178.08 228.2,178.02 C231.96,177.7 234.95,175.05 235.06,171.37 C235.25,164.92 235.24,158.47 235.06,152.02 C234.96,148.52 232.24,145.94 228.76,145.49 C227.74,145.36 226.7,145.35 225.67,145.35 C163.46,145.34 101.26,145.34 39.05,145.34 C38.53,145.34 38.02,145.33 37.5,145.34 C32.48,145.48 29.61,148.38 29.59,153.37 C29.57,158.66 29.578453,163.95 29.59,169.24 C29.59,175.33 32.33,178.04 38.49,178.04 C69.78,178.05 101.08,178.05 132.37,178.05 Z" id="Shape"></path>
        </g>
    </g>
</svg>
